<svg width="17" height="14" viewBox="0 0 17 14" fill="none" xmlns="http://www.w3.org/2000/svg">
<path d="M15.5312 12.0625H14.9688V0.8125C14.9688 0.663316 14.9095 0.520242 14.804 0.414753C14.6985 0.309263 14.5554 0.25 14.4062 0.25H10.4688C10.3196 0.25 10.1765 0.309263 10.071 0.414753C9.96551 0.520242 9.90625 0.663316 9.90625 0.8125V3.625H6.53125C6.38207 3.625 6.23899 3.68426 6.1335 3.78975C6.02801 3.89524 5.96875 4.03832 5.96875 4.1875V7H2.59375C2.44457 7 2.30149 7.05926 2.196 7.16475C2.09051 7.27024 2.03125 7.41332 2.03125 7.5625V12.0625H1.46875C1.31957 12.0625 1.17649 12.1218 1.071 12.2273C0.965513 12.3327 0.90625 12.4758 0.90625 12.625C0.90625 12.7742 0.965513 12.9173 1.071 13.0227C1.17649 13.1282 1.31957 13.1875 1.46875 13.1875H15.5312C15.6804 13.1875 15.8235 13.1282 15.929 13.0227C16.0345 12.9173 16.0938 12.7742 16.0938 12.625C16.0938 12.4758 16.0345 12.3327 15.929 12.2273C15.8235 12.1218 15.6804 12.0625 15.5312 12.0625ZM7.09375 4.75H9.90625V12.0625H7.09375V4.75ZM3.15625 8.125H5.96875V12.0625H3.15625V8.125Z" fill="#6F4DC4"/>
</svg>
