<svg width="15" height="14" viewBox="0 0 15 14" fill="none" xmlns="http://www.w3.org/2000/svg">
<path d="M13.1875 3.0625H1.9375C1.78832 3.0625 1.64524 3.00324 1.53975 2.89775C1.43426 2.79226 1.375 2.64918 1.375 2.5C1.375 2.35082 1.43426 2.20774 1.53975 2.10225C1.64524 1.99676 1.78832 1.9375 1.9375 1.9375H11.5C11.6492 1.9375 11.7923 1.87824 11.8977 1.77275C12.0032 1.66726 12.0625 1.52418 12.0625 1.375C12.0625 1.22582 12.0032 1.08274 11.8977 0.977253C11.7923 0.871763 11.6492 0.8125 11.5 0.8125H1.9375C1.49052 0.814351 1.06237 0.992735 0.746302 1.3088C0.430235 1.62487 0.251851 2.05302 0.25 2.5V11.5C0.251851 11.947 0.430235 12.3751 0.746302 12.6912C1.06237 13.0073 1.49052 13.1856 1.9375 13.1875H13.1875C13.4859 13.1875 13.772 13.069 13.983 12.858C14.194 12.647 14.3125 12.3609 14.3125 12.0625V4.1875C14.3125 3.88913 14.194 3.60298 13.983 3.392C13.772 3.18103 13.4859 3.0625 13.1875 3.0625ZM10.6562 8.96875C10.4894 8.96875 10.3262 8.91926 10.1875 8.82655C10.0487 8.73384 9.94059 8.60206 9.87673 8.44789C9.81287 8.29371 9.79616 8.12406 9.82871 7.96039C9.86127 7.79672 9.94163 7.64638 10.0596 7.52838C10.1776 7.41038 10.328 7.33002 10.4916 7.29746C10.6553 7.26491 10.825 7.28162 10.9791 7.34548C11.1333 7.40934 11.2651 7.51748 11.3578 7.65624C11.4505 7.79499 11.5 7.95812 11.5 8.125C11.5 8.34878 11.4111 8.56339 11.2529 8.72162C11.0946 8.87986 10.88 8.96875 10.6562 8.96875Z" fill="#00B4CC"/>
</svg>
