<svg width="19" height="19" viewBox="0 0 19 19" fill="none" xmlns="http://www.w3.org/2000/svg">
<path d="M15.6667 6.5H8.16667C7.24619 6.5 6.5 7.24619 6.5 8.16667V15.6667C6.5 16.5871 7.24619 17.3333 8.16667 17.3333H15.6667C16.5871 17.3333 17.3333 16.5871 17.3333 15.6667V8.16667C17.3333 7.24619 16.5871 6.5 15.6667 6.5Z" stroke="#101113" stroke-width="2" stroke-linecap="round" stroke-linejoin="round"/>
<path d="M3.5 11.8333H2.66667C2.22464 11.8333 1.80072 11.6577 1.48816 11.3452C1.17559 11.0326 1 10.6087 1 10.1667V2.66667C1 2.22464 1.17559 1.80072 1.48816 1.48816C1.80072 1.17559 2.22464 1 2.66667 1H10.1667C10.6087 1 11.0326 1.17559 11.3452 1.48816C11.6577 1.80072 11.8333 2.22464 11.8333 2.66667V3.5" stroke="#101113" stroke-width="2" stroke-linecap="round" stroke-linejoin="round"/>
</svg>
