<svg width="23" height="20" viewBox="0 0 23 20" fill="none" xmlns="http://www.w3.org/2000/svg">
<path d="M18.3285 19.8493H4.47158C4.20907 19.8493 3.95732 19.7451 3.7717 19.5594C3.58608 19.3738 3.4818 19.1221 3.4818 18.8596V9.9515H0.512451L10.7339 0.659443C10.9162 0.493628 11.1537 0.401741 11.4001 0.401741C11.6464 0.401741 11.8839 0.493628 12.0662 0.659443L22.2877 9.9515H19.3183V18.8596C19.3183 19.1221 19.214 19.3738 19.0284 19.5594C18.8428 19.7451 18.591 19.8493 18.3285 19.8493ZM12.3899 17.8698H17.3387V8.12733L11.4001 2.72908L5.46137 8.12733V17.8698H10.4103V11.9311H12.3899V17.8698Z" fill="#00B4CC"/>
</svg>
