<svg width="102" height="103" viewBox="0 0 102 103" fill="none" xmlns="http://www.w3.org/2000/svg">
<path d="M101.4 50.8C101.4 65 95.6 77.8 86.3 87C77.2 96.1 64.6 101.6 50.7 101.6C36.9 101.6 24.3 96 15.1 87C5.8 77.8 0 65 0 50.8C0 22.7 22.7 0 50.7 0C78.7 0 101.4 22.8 101.4 50.8Z" fill="#6F4DC4" fill-opacity="0.12"/>
<path d="M86.2 25V87.8C77.1 96.9 64.5 102.4 50.6 102.4C36.8 102.4 24.2 96.8 15 87.8V25H86.2Z" fill="white"/>
<path d="M60.6 90H42V94.6H60.6V90Z" fill="#E3E6EA"/>
<path d="M69.4 80H33V84.6H69.4V80Z" fill="#E3E6EA"/>
<path d="M69.4 70H33V74.6H69.4V70Z" fill="#E3E6EA"/>
<path d="M65.7887 34L45 54.7887L49.7376 59.5263L70.5263 38.7376L65.7887 34Z" fill="#6F4DC4"/>
<path d="M52.6674 52.9299L38.7376 39L34 43.7376L47.9299 57.6674L52.6674 52.9299Z" fill="#6F4DC4"/>
</svg>
