<svg width="127" height="109" viewBox="0 0 127 109" fill="none" xmlns="http://www.w3.org/2000/svg">
<path d="M120.4 56.8C120.4 71 114.6 83.8 105.3 93C96.2 102.1 83.6 107.6 69.7 107.6C55.9 107.6 43.3 102 34.1 93C24.8 83.8 19 71 19 56.8C19 28.7 41.7 6 69.7 6C97.7 6 120.4 28.8 120.4 56.8Z" fill="#6F4DC4" fill-opacity="0.12"/>
<path d="M105.2 31V93.8C96.1 102.9 83.5 108.4 69.6 108.4C55.8 108.4 43.2 102.8 34 93.8V31H105.2Z" fill="white"/>
<path d="M79.6 96H61V100.6H79.6V96Z" fill="#E3E6EA"/>
<path d="M88.4 86H52V90.6H88.4V86Z" fill="#E3E6EA"/>
<path d="M88.4 76H52V80.6H88.4V76Z" fill="#E3E6EA"/>
<path d="M84.7887 40L64 60.7887L68.7376 65.5263L89.5263 44.7376L84.7887 40Z" fill="#6F4DC4"/>
<path d="M71.6674 58.9299L57.7376 45L53 49.7376L66.9299 63.6674L71.6674 58.9299Z" fill="#6F4DC4"/>
<path d="M5.2 78.4C8.07188 78.4 10.4 76.0719 10.4 73.2C10.4 70.3281 8.07188 68 5.2 68C2.32812 68 0 70.3281 0 73.2C0 76.0719 2.32812 78.4 5.2 78.4Z" fill="#6F4DC4" fill-opacity="0.12"/>
<path d="M21.8 19.6C23.3464 19.6 24.6 18.3464 24.6 16.8C24.6 15.2536 23.3464 14 21.8 14C20.2536 14 19 15.2536 19 16.8C19 18.3464 20.2536 19.6 21.8 19.6Z" fill="#6F4DC4" fill-opacity="0.12"/>
<path d="M120.1 22.2C122.364 22.2 124.2 20.3644 124.2 18.1C124.2 15.8356 122.364 14 120.1 14C117.836 14 116 15.8356 116 18.1C116 20.3644 117.836 22.2 120.1 22.2Z" fill="#6F4DC4" fill-opacity="0.12"/>
<path d="M123.8 5.6C125.346 5.6 126.6 4.3464 126.6 2.8C126.6 1.2536 125.346 0 123.8 0C122.254 0 121 1.2536 121 2.8C121 4.3464 122.254 5.6 123.8 5.6Z" fill="#6F4DC4" fill-opacity="0.12"/>
</svg>
