<svg width="20" height="19" viewBox="0 0 20 19" fill="none" xmlns="http://www.w3.org/2000/svg">
<path d="M5.0002 6.79601C5.63671 6.79601 6.24717 6.54315 6.69725 6.09306C7.14734 5.64297 7.4002 5.03253 7.4002 4.39601C7.4002 3.75948 7.14734 3.14904 6.69725 2.69895C6.24717 2.24887 5.63671 1.99601 5.0002 1.99601C4.36368 1.99601 3.75322 2.24887 3.30314 2.69895C2.85305 3.14904 2.6002 3.75948 2.6002 4.39601C2.6002 5.03253 2.85305 5.64297 3.30314 6.09306C3.75322 6.54315 4.36368 6.79601 5.0002 6.79601ZM5.0002 8.716C4.43288 8.716 3.87113 8.60426 3.347 8.3872C2.82288 8.17005 2.34664 7.85191 1.94549 7.45071C1.54435 7.04956 1.22614 6.57333 1.00903 6.0492C0.791939 5.52508 0.680195 4.96331 0.680195 4.39601C0.680195 3.8287 0.791939 3.26695 1.00903 2.74282C1.22614 2.21869 1.54435 1.74246 1.94549 1.34131C2.34664 0.940156 2.82288 0.621944 3.347 0.40485C3.87113 0.187746 4.43288 0.0760117 5.0002 0.0760117C6.14593 0.0760117 7.24474 0.531148 8.05492 1.34131C8.86506 2.15146 9.3202 3.25027 9.3202 4.39601C9.3202 5.54174 8.86506 6.64055 8.05492 7.45071C7.24474 8.26087 6.14593 8.716 5.0002 8.716ZM15.0802 10.636C15.5894 10.636 16.0777 10.4337 16.4378 10.0736C16.7979 9.71354 17.0002 9.22519 17.0002 8.716C17.0002 8.20682 16.7979 7.71847 16.4378 7.35836C16.0777 6.99829 15.5894 6.79601 15.0802 6.79601C14.571 6.79601 14.0827 6.99829 13.7226 7.35836C13.3625 7.71847 13.1602 8.20682 13.1602 8.716C13.1602 9.22519 13.3625 9.71354 13.7226 10.0736C14.0827 10.4337 14.571 10.636 15.0802 10.636ZM15.0802 12.556C14.0617 12.556 13.085 12.1515 12.3649 11.4313C11.6447 10.7112 11.2402 9.73447 11.2402 8.716C11.2402 7.69754 11.6447 6.72085 12.3649 6.00072C13.085 5.28057 14.0617 4.87601 15.0802 4.87601C16.0987 4.87601 17.0754 5.28057 17.7955 6.00072C18.5157 6.72085 18.9202 7.69754 18.9202 8.716C18.9202 9.73447 18.5157 10.7112 17.7955 11.4313C17.0754 12.1515 16.0987 12.556 15.0802 12.556ZM17.4802 18.316V17.836C17.4802 17.1995 17.2273 16.5891 16.7773 16.1389C16.3271 15.6889 15.7167 15.436 15.0802 15.436C14.4437 15.436 13.8333 15.6889 13.3831 16.1389C12.9331 16.5891 12.6802 17.1995 12.6802 17.836V18.316H10.7602V17.836C10.7602 17.2687 10.8719 16.7069 11.089 16.1828C11.3061 15.6587 11.6244 15.1825 12.0255 14.7813C12.4267 14.3802 12.9029 14.062 13.427 13.8448C13.9511 13.6277 14.5129 13.516 15.0802 13.516C15.6475 13.516 16.2093 13.6277 16.7334 13.8448C17.2575 14.062 17.7337 14.3802 18.1349 14.7813C18.536 15.1825 18.8542 15.6587 19.0714 16.1828C19.2885 16.7069 19.4002 17.2687 19.4002 17.836V18.316H17.4802ZM7.8802 18.316V14.476C7.8802 13.7122 7.57674 12.9796 7.03666 12.4396C6.49656 11.8995 5.76402 11.596 5.0002 11.596C4.23637 11.596 3.50383 11.8995 2.96373 12.4396C2.42362 12.9796 2.1202 13.7122 2.1202 14.476V18.316H0.200195V14.476C0.200195 13.2029 0.705904 11.9821 1.60609 11.0819C2.50626 10.1817 3.72716 9.676 5.0002 9.676C6.27323 9.676 7.49418 10.1817 8.39428 11.0819C9.29447 11.9821 9.8002 13.2029 9.8002 14.476V18.316H7.8802Z" fill="#6F4DC4"/>
</svg>
