<svg width="24" height="25" viewBox="0 0 24 25" fill="none" xmlns="http://www.w3.org/2000/svg">
<path d="M20.5359 2.20001H3.46392C2.39249 2.20001 1.52393 3.06858 1.52393 4.14001V21.212C1.52393 22.2834 2.39249 23.152 3.46392 23.152H20.5359C21.6074 23.152 22.4759 22.2834 22.4759 21.212V4.14001C22.4759 3.06858 21.6074 2.20001 20.5359 2.20001Z" stroke="#6F4DC4" stroke-width="2.425"/>
<path d="M11 10V13.2C11 13.6418 10.6337 14 10.1818 14H2" stroke="#6F4DC4" stroke-width="2.425"/>
<path d="M11 3V7.656" stroke="#6F4DC4" stroke-width="2.425"/>
<path d="M16 2C16 5.42858 18.7794 8.208 22.208 8.208" stroke="#6F4DC4" stroke-width="2.425"/>
<path d="M22.536 15H14.7761C14.3475 15 14 15.3474 14 15.776V23.536" stroke="#6F4DC4" stroke-width="2.425"/>
</svg>
